<?xml version="1.0" encoding="utf-8"?>
<!-- Generator: Adobe Illustrator 27.0.1, SVG Export Plug-In . SVG Version: 6.00 Build 0)  -->
<svg version="1.1" id="Livello_1" xmlns:sketch="http://www.bohemiancoding.com/sketch/ns"
	 xmlns="http://www.w3.org/2000/svg" xmlns:xlink="http://www.w3.org/1999/xlink" x="0px" y="0px" viewBox="0 0 90 90"
	 style="enable-background:new 0 0 90 90;" xml:space="preserve">
<style type="text/css">
	.st0{fill-rule:evenodd;clip-rule:evenodd;}
</style>
<g sketch:type="MSPage">
	<path sketch:type="MSShapeGroup" class="st0" d="M22.5,0v7.5H30h7.5H45h7.5H60h7.5V0H60h-7.5H45h-7.5H30H22.5L22.5,0z M67.5,7.5V15
		H75V7.5H67.5L67.5,7.5z M75,15v7.5h7.5V15H75L75,15z M82.5,22.5V30v7.5V45v7.5V60v7.5H90V60v-7.5V45v-7.5V30v-7.5H82.5L82.5,22.5z
		 M82.5,67.5H75V75h7.5V67.5L82.5,67.5z M75,75h-7.5v7.5H75V75L75,75z M67.5,82.5H60h-7.5H45h-7.5H30h-7.5V90H30h7.5H45h7.5H60h7.5
		V82.5L67.5,82.5z M22.5,82.5V75H15v7.5H22.5L22.5,82.5z M15,75v-7.5H7.5V75H15L15,75z M7.5,67.5V60v-7.5V45v-7.5V30v-7.5H0V30v7.5
		V45v7.5V60v7.5H7.5L7.5,67.5z M7.5,22.5H15V15H7.5V22.5L7.5,22.5z M15,15h7.5V7.5H15V15L15,15z M22.5,22.5V30v7.5V45H30h7.5H45
		v-7.5h-7.5V30H30v-7.5H22.5L22.5,22.5z M37.5,30H45h7.5v-7.5H45h-7.5V30L37.5,30z M52.5,30v7.5H60V30H52.5L52.5,30z M60,37.5V45
		v7.5h7.5V45v-7.5H60L60,37.5z M60,52.5h-7.5V60H60V52.5L60,52.5z M52.5,60H45h-7.5v7.5H45h7.5V60L52.5,60z M37.5,60v-7.5H30V60
		H37.5L37.5,60z"/>
</g>
</svg>
